{
	"asset":{
		"generator":"Khronos glTF Blender I/O v4.0.44",
		"version":"2.0"
	},
	"extensionsUsed":[
		"KHR_materials_specular",
		"KHR_materials_ior"
	],
	"scene":0,
	"scenes":[
		{
			"name":"Scene",
			"nodes":[
				0
			]
		}
	],
	"nodes":[
		{
			"mesh":0,
			"name":"LabCat",
			"rotation":[
				0.7071068286895752,
				0,
				0,
				0.7071068286895752
			]
		}
	],
	"materials":[
		{
			"doubleSided":true,
			"extensions":{
				"KHR_materials_specular":{
					"specularFactor":0
				},
				"KHR_materials_ior":{
					"ior":1.4500000476837158
				}
			},
			"name":"labcatnov17_2024_v1_mtl",
			"pbrMetallicRoughness":{
				"baseColorTexture":{
					"index":0
				},
				"metallicFactor":0
			}
		}
	],
	"meshes":[
		{
			"name":"Object_0",
			"primitives":[
				{
					"attributes":{
						"POSITION":0,
						"NORMAL":1,
						"TEXCOORD_0":2
					},
					"indices":3,
					"material":0
				}
			]
		}
	],
	"textures":[
		{
			"sampler":0,
			"source":0
		}
	],
	"images":[
		{
			"mimeType":"image/png",
			"name":"LabCatNov17_2024_V1_BaseColor",
			"uri":"LabCatNov17_2024_V1_BaseColor.png"
		}
	],
	"accessors":[
		{
			"bufferView":0,
			"componentType":5126,
			"count":34582,
			"max":[
				0.3840061128139496,
				0.7690864205360413,
				0.40307584404945374
			],
			"min":[
				-0.38717320561408997,
				-0.005378213711082935,
				-0.41708922386169434
			],
			"type":"VEC3"
		},
		{
			"bufferView":1,
			"componentType":5126,
			"count":34582,
			"type":"VEC3"
		},
		{
			"bufferView":2,
			"componentType":5126,
			"count":34582,
			"type":"VEC2"
		},
		{
			"bufferView":3,
			"componentType":5123,
			"count":34920,
			"type":"SCALAR"
		}
	],
	"bufferViews":[
		{
			"buffer":0,
			"byteLength":414984,
			"byteOffset":0,
			"target":34962
		},
		{
			"buffer":0,
			"byteLength":414984,
			"byteOffset":414984,
			"target":34962
		},
		{
			"buffer":0,
			"byteLength":276656,
			"byteOffset":829968,
			"target":34962
		},
		{
			"buffer":0,
			"byteLength":69840,
			"byteOffset":1106624,
			"target":34963
		}
	],
	"samplers":[
		{
			"magFilter":9729,
			"minFilter":9987
		}
	],
	"buffers":[
		{
			"byteLength":1176464,
			"uri":"LabCatGLTF.bin"
		}
	]
}
