<?xml version="1.0" encoding="UTF-8"?>
<svg xmlns="http://www.w3.org/2000/svg" xmlns:xlink="http://www.w3.org/1999/xlink" xmlns:svg="http://www.w3.org/2000/svg" version="1.1" viewBox="0 0 476 960">
  <defs>
    <style>
      .cls-1 {
        fill: url(#linear-gradient-8);
      }

      .cls-2 {
        fill: url(#linear-gradient-7);
      }

      .cls-3 {
        fill: url(#linear-gradient-5);
      }

      .cls-4 {
        fill: url(#linear-gradient-6);
      }

      .cls-5 {
        fill: url(#linear-gradient-9);
      }

      .cls-6 {
        fill: url(#linear-gradient-4);
      }

      .cls-7 {
        fill: url(#linear-gradient-3);
      }

      .cls-8 {
        fill: url(#linear-gradient-2);
      }

      .cls-9, .cls-10, .cls-11, .cls-12, .cls-13 {
        fill-opacity: 1;
      }

      .cls-9, .cls-11, .cls-14 {
        stroke: #191919;
      }

      .cls-9, .cls-12 {
        fill: #262626;
      }

      .cls-9, .cls-12, .cls-15 {
        opacity: .9;
      }

      .cls-9, .cls-12, .cls-15, .cls-13, .cls-16 {
        isolation: isolate;
      }

      .cls-9, .cls-14 {
        stroke-width: 5px;
      }

      .cls-10 {
        fill: #ca0000;
      }

      .cls-17 {
        fill: url(#linear-gradient);
      }

      .cls-11 {
        stroke-width: 14px;
      }

      .cls-14 {
        fill: #212121;
      }

      .cls-18 {
        fill: url(#linear-gradient-10);
      }

      .cls-19 {
        fill: url(#linear-gradient-11);
      }

      .cls-20 {
        fill: url(#linear-gradient-12);
      }

      .cls-21 {
        fill: url(#linear-gradient-13);
      }

      .cls-22 {
        fill: url(#linear-gradient-14);
      }

      .cls-23 {
        fill: url(#linear-gradient-15);
      }

      .cls-24 {
        fill: url(#linear-gradient-16);
      }

      .cls-25 {
        fill: url(#linear-gradient-17);
      }

      .cls-26 {
        fill: url(#linear-gradient-18);
      }

      .cls-15 {
        fill: #191919;
      }

      .cls-13, .cls-16 {
        opacity: .5;
      }

      .cls-16 {
        fill: none;
        stroke: #292929;
        stroke-linecap: round;
        stroke-linejoin: round;
        stroke-width: 6px;
      }
    </style>
    <linearGradient id="linear-gradient" x1="-100.3" y1="1385.3" x2="-123.4" y2="1377.7" gradientTransform="translate(-1024.7 35.6) rotate(-90)" gradientUnits="userSpaceOnUse">
      <stop offset="0" stop-color="#1a1a1a"/>
      <stop offset="1" stop-color="#f30000" stop-opacity="0"/>
    </linearGradient>
    <linearGradient id="linear-gradient-2" x1="-81.1" y1="1072.3" x2="-92.9" y2="1072.4" gradientTransform="translate(-724.1 22.4) rotate(-90)" gradientUnits="userSpaceOnUse">
      <stop offset="0" stop-color="#1a1a1a"/>
      <stop offset="1" stop-color="#f30000" stop-opacity="0"/>
    </linearGradient>
    <linearGradient id="linear-gradient-3" x1="-89.4" y1="1075.9" x2="-153.5" y2="1070.4" gradientTransform="translate(-725.5 16.2) rotate(-90)" gradientUnits="userSpaceOnUse">
      <stop offset="0" stop-color="#1a1a1a"/>
      <stop offset="1" stop-color="#f30000" stop-opacity="0"/>
    </linearGradient>
    <linearGradient id="linear-gradient-4" x1="-82.6" y1="1098.4" x2="-96.1" y2="1091.4" gradientTransform="translate(-724.1 22.4) rotate(-90)" gradientUnits="userSpaceOnUse">
      <stop offset="0" stop-color="#1a1a1a"/>
      <stop offset="1" stop-color="#f30000" stop-opacity="0"/>
    </linearGradient>
    <linearGradient id="linear-gradient-5" x1="-104.7" y1="1101.7" x2="-149.4" y2="1050.7" gradientTransform="translate(-724.1 22.4) rotate(-90)" gradientUnits="userSpaceOnUse">
      <stop offset="0" stop-color="#1a1a1a"/>
      <stop offset="1" stop-color="#f30000" stop-opacity="0"/>
    </linearGradient>
    <linearGradient id="linear-gradient-6" x1="-30.9" y1="1194.3" x2="-113.5" y2="1195.6" gradientTransform="translate(-712.3 97.9) rotate(-90) scale(.9)" gradientUnits="userSpaceOnUse">
      <stop offset="0" stop-color="#1a1a1a"/>
      <stop offset="1" stop-color="#f30000" stop-opacity="0"/>
    </linearGradient>
    <linearGradient id="linear-gradient-7" x1="-39.2" y1="1197.6" x2="-106.9" y2="1193.6" gradientTransform="translate(-708.8 111.7) rotate(-90) scale(.9)" gradientUnits="userSpaceOnUse">
      <stop offset="0" stop-color="#1a1a1a"/>
      <stop offset="1" stop-color="#f30000" stop-opacity="0"/>
    </linearGradient>
    <linearGradient id="linear-gradient-8" x1="-602.6" y1="1341.8" x2="-626.7" y2="1336.3" gradientTransform="translate(-868.8 -21.7) rotate(-82.1)" gradientUnits="userSpaceOnUse">
      <stop offset="0" stop-color="#1a1a1a"/>
      <stop offset="1" stop-color="#f30000" stop-opacity="0"/>
    </linearGradient>
    <linearGradient id="linear-gradient-9" x1="-593.2" y1="1339.1" x2="-615.5" y2="1338.7" gradientTransform="translate(-867.5 -32) rotate(-82.1)" gradientUnits="userSpaceOnUse">
      <stop offset="0" stop-color="#1a1a1a"/>
      <stop offset="1" stop-color="#f30000" stop-opacity="0"/>
    </linearGradient>
    <linearGradient id="linear-gradient-10" x1="-100.3" y1="-658.7" x2="-123.4" y2="-666.4" gradientTransform="translate(-543.3 35.6) rotate(-90) scale(1 -1)" gradientUnits="userSpaceOnUse">
      <stop offset="0" stop-color="#1a1a1a"/>
      <stop offset="1" stop-color="#f30000" stop-opacity="0"/>
    </linearGradient>
    <linearGradient id="linear-gradient-11" x1="-81.1" y1="-971.7" x2="-92.9" y2="-971.7" gradientTransform="translate(-843.9 22.4) rotate(-90) scale(1 -1)" gradientUnits="userSpaceOnUse">
      <stop offset="0" stop-color="#1a1a1a"/>
      <stop offset="1" stop-color="#f30000" stop-opacity="0"/>
    </linearGradient>
    <linearGradient id="linear-gradient-12" x1="-89.4" y1="-968.1" x2="-153.5" y2="-973.7" gradientTransform="translate(-842.5 16.2) rotate(-90) scale(1 -1)" gradientUnits="userSpaceOnUse">
      <stop offset="0" stop-color="#1a1a1a"/>
      <stop offset="1" stop-color="#f30000" stop-opacity="0"/>
    </linearGradient>
    <linearGradient id="linear-gradient-13" x1="-82.7" y1="-945.6" x2="-96.1" y2="-952.6" gradientTransform="translate(-843.9 22.4) rotate(-90) scale(1 -1)" gradientUnits="userSpaceOnUse">
      <stop offset="0" stop-color="#1a1a1a"/>
      <stop offset="1" stop-color="#f30000" stop-opacity="0"/>
    </linearGradient>
    <linearGradient id="linear-gradient-14" x1="-104.7" y1="-942.3" x2="-149.4" y2="-993.3" gradientTransform="translate(-843.9 22.4) rotate(-90) scale(1 -1)" gradientUnits="userSpaceOnUse">
      <stop offset="0" stop-color="#1a1a1a"/>
      <stop offset="1" stop-color="#f30000" stop-opacity="0"/>
    </linearGradient>
    <linearGradient id="linear-gradient-15" x1="-30.9" y1="-1093.8" x2="-113.5" y2="-1092.6" gradientTransform="translate(-855.7 97.9) rotate(-90) scale(.9 -.9)" gradientUnits="userSpaceOnUse">
      <stop offset="0" stop-color="#1a1a1a"/>
      <stop offset="1" stop-color="#f30000" stop-opacity="0"/>
    </linearGradient>
    <linearGradient id="linear-gradient-16" x1="-39.2" y1="-1090.6" x2="-106.9" y2="-1094.6" gradientTransform="translate(-859.2 111.7) rotate(-90) scale(.9 -.9)" gradientUnits="userSpaceOnUse">
      <stop offset="0" stop-color="#1a1a1a"/>
      <stop offset="1" stop-color="#f30000" stop-opacity="0"/>
    </linearGradient>
    <linearGradient id="linear-gradient-17" x1="-884.6" y1="-682.7" x2="-908.7" y2="-688.2" gradientTransform="translate(-699.2 -21.7) rotate(-97.9) scale(1 -1)" gradientUnits="userSpaceOnUse">
      <stop offset="0" stop-color="#1a1a1a"/>
      <stop offset="1" stop-color="#f30000" stop-opacity="0"/>
    </linearGradient>
    <linearGradient id="linear-gradient-18" x1="-875.3" y1="-685.3" x2="-897.5" y2="-685.7" gradientTransform="translate(-700.5 -32) rotate(-97.9) scale(1 -1)" gradientUnits="userSpaceOnUse">
      <stop offset="0" stop-color="#1a1a1a"/>
      <stop offset="1" stop-color="#f30000" stop-opacity="0"/>
    </linearGradient>
  </defs>
  <!-- Generator: Adobe Illustrator 28.6.0, SVG Export Plug-In . SVG Version: 1.2.0 Build 709)  -->
  <g>
    <g id="svg2">
      <g id="layer1">
        <g id="g3890">
          <path id="path3855" class="cls-11" d="M7,402.4c0,1.5.3,4.7.9,6.5l1.5,3.5,35.9-8.7.3,124.8v7.3c0,4.9,0,9.9-.2,14.8-.2,7.3-.4,14.7-.7,22.1,0,.4,0,.8,0,1.2-.6,14.9-1.5,30-2.4,45-1.3,20.3-2.7,40.5-3.9,60.1-.9,14.5-1.6,28.7-2,42.4-.3,9.4-.5,18.5-.4,27.2,0,4.3,0,8.6.2,12.7,0,4.2.4,8.4.7,12.7.2,2.1.3,4.3.5,6.4.6,6.5,1.3,13,2.2,19.6h0c.6,4.4,1.2,8.7,1.9,13.1s1.4,8.7,2.2,12.9c.8,4.3,1.6,8.5,2.4,12.6h0c.4,2.1.8,4.1,1.2,6.1,1.2,6.1,2.5,11.9,3.8,17.5h0c.8,3.7,1.7,7.3,2.5,10.7,1.6,6.9,3.2,13.1,4.7,18.5,2.1,8.1,3.9,14.4,5,18.1.7,2.5,1.1,3.8,1.1,3.8l3.8,13.7c.2.9.7,1.8,1.3,2.6.2.3.4.6.7.8,1,1.1,2.3,2.2,3.8,3.2h0c.8.5,1.6,1,2.6,1.5h0c.9.5,1.9,1,3,1.4h0c8.5,3.7,21.1,6.6,36.2,8.9h0c.2,0,.5,0,.7,0,3.3.5,6.8,1,10.3,1.4.2,0,.5,0,.7,0,4,.5,8.2.9,12.5,1.4h0c2.1.2,4.3.4,6.5.6h0c2.2.2,4.3.4,6.6.6h0c4.4.4,8.9.7,13.5,1h0c13.7.9,27.8,1.5,41.6,1.8h0c9.2.2,18.2.3,26.9.3h5.8c8.7,0,17.7,0,26.9-.3h0c13.8-.3,27.9-.9,41.6-1.8h0c4.6-.3,9.1-.6,13.5-1h0c2.2-.2,4.4-.4,6.6-.6h0c2.2-.2,4.3-.4,6.5-.6h0c4.3-.4,8.4-.9,12.5-1.4.2,0,.5,0,.7,0,3.5-.4,7-.9,10.3-1.4.2,0,.5,0,.7,0h0c15.1-2.3,27.7-5.3,36.2-8.9h0c1.1-.5,2-.9,3-1.4h0c.9-.5,1.8-1,2.6-1.5h0c1.6-1,2.9-2.1,3.8-3.2.3-.3.5-.6.7-.8.6-.8,1.1-1.7,1.3-2.6l3.8-13.7s.4-1.3,1.1-3.8c1.1-3.7,2.9-10,5-18.1,1.4-5.4,3-11.7,4.7-18.5.8-3.4,1.7-7,2.5-10.7h0c1.3-5.6,2.5-11.4,3.8-17.5.4-2,.8-4,1.2-6.1h0c.8-4.1,1.6-8.3,2.4-12.6.8-4.3,1.5-8.6,2.2-12.9s1.3-8.7,1.9-13.1h0c.9-6.5,1.6-13.1,2.2-19.6.2-2.2.3-4.3.5-6.4.3-4.3.5-8.5.7-12.7s.2-8.4.2-12.7c.1-8.8-.1-17.9-.4-27.2-.4-13.6-1.1-27.8-2-42.4-1.2-19.6-2.6-39.8-3.9-60.1-.9-15-1.8-30.1-2.4-45,0-.4,0-.8-.1-1.2-.3-7.4-.6-14.8-.7-22.1-.1-5-.2-9.9-.2-14.8v-7.3l.3-124.8,35.9,8.7,1.5-3.5c.6-1.7.9-5,.9-6.5s0-1.8-.2-2.7c0-.3,0-.6-.2-.9,0-.3-.2-.6-.2-.9-.2-.6-.4-1.3-.7-1.9-.8-1.8-1.9-3.5-3.3-4.8h0c-.7-.6-1.5-1.1-2.3-1.5l-31.3-12.2.2-109.9c.4-.7.7-1.5,1.1-2.2,1.4-3,2.6-5.9,3.6-8.8.5-1.5,1-2.9,1.4-4.4,1.5-5.1,2.6-10.2,3.2-15.3.4-2.9.7-5.9.9-8.9.1-1.5.2-3,.2-4.6.1-3.1.2-6.1.2-9.3.1-6.3,0-13,0-20,0-10.4-.5-20.3-1.6-29.8-.4-3.8-.9-7.5-1.5-11.1-1.1-7.3-2.6-14.2-4.4-20.9-.4-1.7-.9-3.3-1.4-5-1.4-4.9-3-9.6-4.8-14.2-.6-1.5-1.2-3-1.8-4.5-1.2-3-2.6-5.9-3.9-8.7l-2.1-4.2c-1.4-2.8-3-5.5-4.6-8.1-.8-1.3-1.6-2.6-2.4-3.9-4.1-6.4-8.6-12.4-13.5-17.9-3.9-4.4-8.1-8.6-12.5-12.5h0c-1.1-1-2.2-1.9-3.3-2.9h0c-1.1-.9-2.3-1.9-3.4-2.8h0c-3.5-2.7-7-5.3-10.7-7.7h0c-1.2-.8-2.5-1.6-3.7-2.4h0c-3.8-2.3-7.7-4.6-11.7-6.6h0c-1.3-.7-2.7-1.3-4-2h0c-1.4-.7-2.7-1.3-4.1-1.9h0c-2.8-1.2-5.6-2.4-8.4-3.6h0c-1.4-.6-2.9-1.1-4.3-1.6h0c-1.4-.5-2.9-1.1-4.4-1.6s-2.9-1-4.4-1.5h0c-1.5-.5-3-.9-4.5-1.4h0c-1.5-.4-3-.9-4.6-1.3h0c-4.6-1.2-9.3-2.4-14.1-3.3h0c-1.6-.3-3.2-.6-4.8-.9h0c-11.3-2.1-23.1-3.5-35.2-4.2h0c-1.7-.1-3.5-.2-5.2-.2h0c-3.5-.1-7-.2-10.6-.3h-14.6c-3.6,0-7.1.1-10.6.3h0c-1.7.1-3.5.2-5.2.2h0c-12.2.7-23.9,2.1-35.2,4.2h0c-1.6.3-3.2.6-4.8.9h0c-4.8,1-9.5,2.1-14.1,3.3h0c-1.5.4-3.1.8-4.6,1.3h0c-1.5.4-3,.9-4.5,1.4h0c-1.5.5-3,1-4.4,1.5-1.5.5-2.9,1-4.4,1.6h0c-1.4.5-2.9,1.1-4.3,1.6h0c-2.9,1.1-5.6,2.3-8.4,3.6h0c-1.4.6-2.7,1.3-4.1,1.9h0c-1.4.7-2.7,1.3-4,2h0c-4,2.1-7.9,4.3-11.7,6.6h0c-1.3.8-2.5,1.6-3.7,2.4h0c-3.7,2.4-7.3,5-10.7,7.7h0c-1.1.9-2.3,1.8-3.4,2.8h0c-1.1.9-2.2,1.9-3.3,2.9h0c-4.4,3.9-8.5,8.1-12.5,12.5-4.9,5.5-9.4,11.5-13.5,17.9-.8,1.3-1.6,2.6-2.4,3.9-1.6,2.6-3.1,5.3-4.6,8.1-.7,1.4-1.4,2.8-2.1,4.2-1.4,2.8-2.7,5.7-3.9,8.7-.6,1.5-1.2,3-1.8,4.5-1.8,4.6-3.4,9.3-4.8,14.2-.5,1.6-.9,3.3-1.4,5-1.8,6.7-3.2,13.6-4.4,20.9-.6,3.6-1.1,7.3-1.5,11.1-1,9.5-1.6,19.4-1.6,29.8s0,13.7,0,20c0,3.2,0,6.3.2,9.3,0,1.5,0,3.1.2,4.6.2,3,.5,6,.9,8.9.7,5.2,1.7,10.2,3.2,15.3.4,1.5.9,2.9,1.4,4.4,1,2.9,2.2,5.9,3.6,8.8.3.7.7,1.5,1.1,2.2l.2,109.9-31.7,12.2c-.8.4-1.6.8-2.3,1.5h0c-1.4,1.2-2.5,3-3.3,4.8-.3.6-.5,1.2-.7,1.9,0,.3-.2.6-.2.9,0,.3-.2.6-.2.9-.3,1-.4,1.9-.4,2.7h0Z"/>
          <path id="carbody" class="cls-10" d="M7,402.4c0,1.5.3,4.7.9,6.5l1.5,3.5,35.8-8.7.3,124.8c.2,78-11.5,166.5-9.5,232.9s28,152.1,28,152.1l3.8,13.7c5.3,19.3,97.4,25.7,166.8,25.7h6.8c69.4,0,161.5-6.5,166.8-25.7l3.8-13.7s26-85.7,28-152.1-9.7-155-9.5-232.9l.3-124.8,35.8,8.7,1.5-3.5c.6-1.7.9-5,.9-6.5s0-1.8-.2-2.7c0-.3,0-.6-.2-.9,0-.3-.2-.6-.2-.9-.2-.6-.4-1.3-.7-1.9-.8-1.8-1.9-3.5-3.3-4.8h0c-.7-.6-1.5-1.1-2.3-1.5l-31.2-12.2.2-109.9c11.9-23.9,10.7-45.5,10.7-73.6C441.8,60.8,355.2,6.4,240.4,7h-4.6C121,6.4,34.4,60.7,34.4,194s-1.2,49.7,10.7,73.6l.2,109.9-31.2,12.2c-.8.4-1.6.8-2.3,1.5h0c-1.4,1.2-2.5,3-3.3,4.8-.3.6-.5,1.2-.7,1.9,0,.3-.2.6-.2.9,0,.3-.2.6-.2.9-.3,1-.4,1.9-.4,2.7h0Z"/>
          <path id="path3643" class="cls-12" d="M368.6,612.6c0,33.4,1.8,65.3,5.1,94.8,48.7-25.7,30.3-98,31.5-205.6.6-49.7,1.9-89.5,2.4-121.5-23.4,47.2-39,133.5-39,232.3Z"/>
          <path id="path3658" class="cls-13" d="M368.6,612.6c0,3.2,0,6.4.1,9.6,16.2-.8,30.3-6.4,38.8-14.6-.1-4.7-.2-9.5-.3-14.4-8.2,8.6-22.2,14.6-38.6,15.7v3.7Z"/>
          <path id="path3707" class="cls-14" d="M340.8,23.9l.6,5.1c2.5,21.5,26,37.7,54.5,39.3l7.1.4-4.8-5.2c-14.7-15.9-32.5-28.3-52.8-37.4l-4.6-2.2Z"/>
          <path id="path3715" class="cls-16" d="M351.8,229.5s-22.6-79.7-32-105.4c-9.8-26.8-39.1-98.9-39.1-98.9,0,0,42.5,8.7,57.9,30.5,54.9,77.2,53.9,232.7,53.9,232.7"/>
          <path id="path3757" class="cls-17" d="M331.2,143l2.3,4.4c1.2-1,2.4-1.8,3.8-2.4,11.7-4.8,29.2,10.7,35.8,26.9.2.5.8,1.8,1.7,3.4l-3.9-13.6c-8.5-17.3-23.1-27.5-34-23-2.2.9-4.1,2.4-5.7,4.3h0Z"/>
          <path id="path3787" class="cls-8" d="M326.7,134.4l2.3,4.4c1.2-1,2.4-1.8,3.8-2.4,11.7-4.8,29.2,10.7,35.8,26.9.2.5.8,1.8,1.7,3.4l-3.9-13.6c-8.5-17.3-23.1-27.5-34-23-2.2.9-4.1,2.4-5.7,4.3h0Z"/>
          <path id="path3752" class="cls-7" d="M325.3,128.2l2.3,4.4c1.2-1,2.4-1.8,3.8-2.4,11.7-4.8,29.2,10.7,35.8,26.9.2.5.8,1.8,1.7,3.4l-3.9-13.6c-8.5-17.3-23.1-27.5-34-23-2.2.9-4.1,2.4-5.7,4.3h0Z"/>
          <path id="path3735" class="cls-6" d="M321,111.3l1.8,6.2c1.7-1,3.5-1.7,5.5-2,16-3.1,34.3,21,38.5,43,.6,3.4,8.6,28.9,8.8,32.2h4.1l-12.1-41.4c-5.5-26.3-22.4-44.9-38.2-41.9-3.1.5-5.9,1.9-8.4,3.9h0Z"/>
          <path id="path3783" class="cls-3" d="M321,111.3l1.8,6.2c1.7-1,3.5-1.7,5.5-2,16-3.1,34.3,21,38.5,43,.6,3.4,8.6,28.9,8.8,32.2h4.1l-12.1-41.4c-5.5-26.3-22.4-44.9-38.2-41.9-3.1.5-5.9,1.9-8.4,3.9h0Z"/>
          <path id="path3799" class="cls-4" d="M335.8,155.8l2.1,4c1-.9,2.2-1.6,3.4-2.1,10.5-4.3,26.1,9.6,32,24,.2.5.8,1.6,1.5,3l-3.5-12.2c-7.6-15.5-20.6-24.5-30.4-20.5-2,.8-3.7,2.1-5.1,3.8h0Z"/>
          <path id="path3803" class="cls-2" d="M339.4,169.6l2.1,4c1-.9,2.2-1.6,3.4-2.1,10.5-4.3,26.1,9.6,32,24,.2.5.8,1.6,1.5,3l-3.5-12.2c-7.6-15.5-20.6-24.5-30.4-20.5-2,.8-3.7,2.1-5.1,3.8h0Z"/>
          <path id="rect3861" class="cls-1" d="M359.1,779.7c-2-8.3-1.5-15.5,5.8-19.8l17.9,2.5c6.2,6.9,5,13.8.2,20.6l-23.9-3.3h0Z"/>
          <path id="path3864" class="cls-5" d="M362.3,759.4c-1.2-8.2-.6-15.2,5.5-18.8l17,2.4c3,6.5,5.2,13,.1,19.6l-22.6-3.2h0Z"/>
          <path id="path4025" class="cls-15" d="M366.1,612.6c0,33.5,1.8,65.5,5.1,95.1l.4,3.7,3.2-1.7c12.7-6.7,21.1-16.6,26.4-29.1s7.6-27.6,8.4-45.1c1.6-35-2.6-80-2-133.6.6-49.7,1.9-89.5,2.4-121.5l-4.8-1.1c-23.6,47.8-39.1,134.3-39.1,233.3ZM371.1,612.6c0-91.2,13.5-171.7,33.7-220.1-.6,30-1.6,65.2-2.1,109.3-.6,53.9,3.7,99,2,133.4-.8,17.2-3.1,31.8-8.1,43.4-4.5,10.5-11.2,18.5-20.9,24.5-2.9-28.3-4.6-58.7-4.6-90.5Z"/>
          <path id="rect2864" class="cls-9" d="M120.7,752.4l12.5,77.7c4.4,27.2,48.8,48.9,104.8,51,56.1-2.1,100.5-23.8,104.8-51l12.5-77.7c0-13.3-10.7-24-24-24h-186.6c-13.3,0-24,10.7-24,24h0Z"/>
          <path id="path3703" class="cls-9" d="M86.5,321c0,3,.3,5.9,1,8.8h0l12.3,63.8c6.6,17.7,14.3,32,32,32h212.6c17.7,0,25.4-14.3,32-32l12.3-63.8h0c.6-2.9,1-5.8,1-8.8,0-45.4-57.4-82.2-151.5-82.3-94.3,0-151.7,36.9-151.7,82.3h0Z"/>
          <path id="path4157" class="cls-12" d="M107.5,612.6c0,33.4-1.8,65.3-5.1,94.8-48.7-25.7-30.3-98-31.5-205.6-.6-49.7-1.9-89.5-2.4-121.5,23.4,47.2,39,133.5,39,232.3Z"/>
          <path id="path4159" class="cls-13" d="M107.5,612.6c0,3.2,0,6.4-.1,9.6-16.2-.8-30.3-6.4-38.8-14.6,0-4.7.2-9.5.3-14.4,8.2,8.6,22.2,14.6,38.6,15.7v3.7Z"/>
          <path id="path4161" class="cls-14" d="M135.2,23.9l-.6,5.1c-2.5,21.5-26,37.7-54.5,39.3l-7.1.4,4.8-5.2c14.7-15.9,32.5-28.3,52.8-37.4l4.6-2.2Z"/>
          <path id="path4163" class="cls-16" d="M124.2,229.5s22.6-79.7,32-105.4c9.8-26.8,39.1-98.9,39.1-98.9,0,0-42.5,8.7-57.9,30.5-54.9,77.2-53.9,232.7-53.9,232.7"/>
          <path id="path4165" class="cls-18" d="M144.9,143l-2.3,4.4c-1.2-1-2.4-1.8-3.8-2.4-11.7-4.8-29.2,10.7-35.8,26.9-.2.5-.8,1.8-1.7,3.4l3.9-13.6c8.5-17.3,23.1-27.5,34-23,2.2.9,4.1,2.4,5.7,4.3h0Z"/>
          <path id="path4167" class="cls-19" d="M149.4,134.4l-2.3,4.4c-1.2-1-2.4-1.8-3.8-2.4-11.7-4.8-29.2,10.7-35.8,26.9-.2.5-.8,1.8-1.7,3.4l3.9-13.6c8.5-17.3,23.1-27.5,34-23,2.1.9,4.1,2.4,5.7,4.3h0Z"/>
          <path id="path4169" class="cls-20" d="M150.8,128.2l-2.3,4.4c-1.2-1-2.4-1.8-3.8-2.4-11.7-4.8-29.2,10.7-35.8,26.9-.2.5-.8,1.8-1.7,3.4l3.9-13.6c8.5-17.3,23.1-27.5,34-23,2.2.9,4.1,2.4,5.7,4.3h0Z"/>
          <path id="path4171" class="cls-21" d="M155,111.3l-1.8,6.2c-1.7-1-3.5-1.7-5.5-2-16-3.1-34.3,21-38.5,43-.6,3.4-8.6,28.9-8.8,32.2h-4.1l12.1-41.4c5.5-26.3,22.4-44.9,38.2-41.9,3.2.5,6,1.9,8.4,3.9h0Z"/>
          <path id="path4173" class="cls-22" d="M155,111.3l-1.8,6.2c-1.7-1-3.5-1.7-5.5-2-16-3.1-34.3,21-38.5,43-.6,3.4-8.6,28.9-8.8,32.2h-4.1l12.1-41.4c5.5-26.3,22.4-44.9,38.2-41.9,3.2.5,6,1.9,8.4,3.9h0Z"/>
          <path id="path4175" class="cls-23" d="M140.3,155.8l-2.1,4c-1-.9-2.2-1.6-3.4-2.1-10.5-4.3-26.1,9.6-32,24-.2.5-.8,1.6-1.5,3l3.5-12.2c7.6-15.5,20.6-24.5,30.4-20.5,1.9.8,3.7,2.1,5.1,3.8h0Z"/>
          <path id="path4177" class="cls-24" d="M136.7,169.6l-2.1,4c-1-.9-2.2-1.6-3.4-2.1-10.5-4.3-26.1,9.6-32,24-.2.5-.8,1.6-1.5,3l3.5-12.2c7.6-15.5,20.6-24.5,30.4-20.5,2,.8,3.7,2.1,5.1,3.8h0Z"/>
          <path id="path4179" class="cls-25" d="M117,779.7c2-8.3,1.5-15.5-5.8-19.8l-17.9,2.5c-6.2,6.9-5,13.8-.2,20.6l23.9-3.3h0Z"/>
          <path id="path4181" class="cls-26" d="M113.7,759.4c1.2-8.2.6-15.2-5.5-18.8l-17,2.4c-3,6.5-5.2,13-.1,19.6l22.6-3.2h0Z"/>
          <path id="path4183" class="cls-15" d="M110,612.6c0,33.5-1.8,65.5-5.1,95.1l-.4,3.7-3.2-1.7c-12.7-6.7-21.1-16.6-26.4-29.1-5.3-12.5-7.6-27.6-8.4-45.1-1.6-35,2.6-80,2-133.6-.6-49.7-1.9-89.5-2.4-121.5l4.8-1.1c23.5,47.8,39.1,134.3,39.1,233.3ZM105,612.6c0-91.2-13.5-171.7-33.7-220.1.6,30,1.6,65.2,2.1,109.3.6,53.9-3.7,99-2,133.4.8,17.2,3.1,31.8,8.1,43.4,4.5,10.5,11.2,18.5,20.9,24.5,2.9-28.3,4.6-58.7,4.6-90.5Z"/>
        </g>
      </g>
    </g>
  </g>
</svg>