<?xml version="1.0" encoding="utf-8"?>
<!-- Generator: Adobe Illustrator 28.7.1, SVG Export Plug-In . SVG Version: 9.03 Build 54978)  -->
<svg version="1.0" xmlns="http://www.w3.org/2000/svg" xmlns:xlink="http://www.w3.org/1999/xlink" x="0px" y="0px"
	 viewBox="0 0 365 296.3" style="enable-background:new 0 0 365 296.3;" xml:space="preserve">
<g id="Layer_3">
	<path style="fill:#CC9933;" d="M33.9,114.5C26,58.6,61.8,4,66.9,4c5.1,0,64.1,7.2,81.9,62"/>
	<path style="fill:#CC9933;" d="M365,169.8c0,69.9-69,126.5-182.5,126.5C46,296.3,0,239.6,0,169.8S59,43.3,182.5,43.3
		S365,99.9,365,169.8z"/>
	<path style="fill:#CC9933;" d="M329.5,108.3C333.3,52,293.6,0.1,288.4,0.5S225,12.4,211.3,68.4"/>
</g>
<g id="Layer_1">
	<g>
		<path style="fill:#996600;" d="M284.5,19c1.9-0.2,10,9,17.5,23.4h14.3c-6.3-14.2-13.6-25.8-19.3-33h-34.5
			c-13.2,6.1-28.7,16.3-39.7,33h17.3C257.7,23.9,281.7,19.3,284.5,19z"/>
		<path style="fill:#996600;" d="M72.7,22c2.9,0,27.5,2.9,46.3,20.4h18.1c-13.5-18.4-32.4-28.1-47.2-33H62.2
			c-4.8,6.2-11.7,18-17.6,33h14.2C64.8,29.9,71,22,72.7,22z"/>
		<path style="fill:#996600;" d="M326.9,96.7C326.9,96.7,326.9,96.7,326.9,96.7c0.2,2-1.2,3.7-3.1,3.7h6.5c-0.5-9.5-2.8-24.2-5.1-33
			h-12.9c1.6,5.5,1.7,15.6,1.8,24l10.3,2.3C325.8,94.1,326.7,95.3,326.9,96.7z"/>
		<path style="fill:#996600;" d="M211.5,68.5c0.1-0.4,0.2-0.8,0.3-1.1h-5.3l0.3,0.1c0,0,0,0,0,0L211.5,68.5z"/>
		<path style="fill:#996600;" d="M224.4,71.4c0.4-1.4,0.7-2.7,1.2-4h-13.7c-0.1,0.4-0.2,0.7-0.3,1.1L224.4,71.4z"/>
		<path style="fill:#996600;" d="M46,97.6c-0.2-10.5,1.3-20.8,3.7-30.2H36.9c-2.3,10.4-3.8,21.6-3.6,33h3.5L46,97.6z"/>
		<path style="fill:#996600;" d="M136.6,70.1l9-2.7h-9.9C136,68.3,136.3,69.2,136.6,70.1z"/>
		<path style="fill:#996600;" d="M57.3,94.2c-3.5,1.1-2.7,6.2,0.9,6.2h256c-0.1-2.5-0.2-5.6-0.2-9l-89.7-20c0,0,0,0,0,0l-12.9-2.9
			l-4.7-1.1c-0.2-0.1-0.5-0.1-0.7-0.1h-60c-0.3,0-0.6,0-0.9,0.1L57.3,94.2z"/>
		<path style="fill:#996600;" d="M323.7,100.4c2,0,3.4-1.7,3.1-3.7c0,0,0,0,0-0.1c-0.1-1.4-1.1-2.6-2.5-2.9l-10.3-2.3
			c0,3.4,0.1,6.5,0.2,9H323.7z"/>
		<polygon style="fill:#996600;" points="211.5,68.5 206.8,67.5 206.8,67.5 211.5,68.5 		"/>
		<polygon style="fill:#996600;" points="211.5,68.5 224.4,71.4 224.4,71.4 211.5,68.5 		"/>
		<path style="fill:none;" d="M0.5,161.3c-0.3,6.6,0.3,14.2,1.4,22.1h359.4c1.2-7.9,1.8-15.5,1.4-22.1c0-1-0.1-1.9-0.2-2.9H0.7
			C0.6,159.4,0.5,160.3,0.5,161.3z"/>
		<path style="fill:none;" d="M9.1,216.4c2.7,9.7,5.5,18.5,7.6,25h329.7c2.2-6.5,5-15.3,7.6-25H9.1z"/>
		<path style="fill:#996600;" d="M362.6,158.4c-1-11.9-4.2-23.3-8-33H8.6c-3.7,9.7-7,21.1-8,33H362.6z"/>
		<path style="fill:#996600;" d="M9.1,216.4h345c2.9-10.5,5.6-22,7.2-33H1.9C3.5,194.4,6.2,205.9,9.1,216.4z"/>
	</g>
	<path style="fill:#996600;" d="M265.9,284.3H89.6c24.8,7.7,55.5,12,93.1,12C214.1,296.3,241.9,292,265.9,284.3z"/>
</g>
<g id="Layer_2">
	<g>
		<g>
			<g>
				<path style="fill:#FFFF99;stroke:#000000;stroke-width:2;stroke-miterlimit:10;" d="M332.7,195.9l-61,37.8
					c-7,4.3-14.6,7.6-22.7,9.3c-12.4,2.7-26.2-7.7-32.4-13.6c-16.8-15.9-15-28.8-35.5-30v-0.1c-0.2,0-0.4,0-0.5,0c0,0,0,0,0,0v0
					c-20.4,1.2-18.6,14.1-35.5,30c-6.2,5.9-20,16.2-32.4,13.6c-8-1.7-15.7-5-22.7-9.3l-61-37.8c0,0-18,6.8-17.3,25.5
					c0.4,11.2,7.7,21,18.1,25.2c5.5,2.2,31.6,6.7,45.3,10.8c0,0-11-8-19-9c13.9,1.7,53,35.2,69,34c37.8-2.8,53.5-23.4,55.7-26.6
					c2.1,3,17.8,23.8,55.7,26.6c16,1.2,51.5-25.1,60.5-32c-2.3,1.8-8.5,7-8.5,7c13.8-4.1,37.9-8.6,43.3-10.8
					c10.4-4.2,17.6-14,18.1-25.2C350.7,202.7,332.7,195.9,332.7,195.9z"/>
			</g>
			<path style="fill:#663300;stroke:#000000;stroke-width:2;stroke-miterlimit:10;" d="M159.6,223.1c0.9-0.5,1.8-0.9,2.8-1.2
				c12.6-3.6,25.2-3.5,38.8,1.4c14,5,11.7,9.6,4.4,12.8c-7.5,3.3-14.5,5.3-15.4,12.5c-1,8.8-11.6,13-17.9,6.8c-5.1-5-2-11-7.1-16.1
				c-3.1-3.1-15-3-14-8C151.9,227.7,157,224.6,159.6,223.1z"/>
			<g>
				<path style="fill:#FFFFFF;stroke:#000000;stroke-width:2;stroke-miterlimit:10;" d="M157.3,180.6c1.2,3.4,1.6,7.1,1.2,10.9
					c-1.4,11.3-10.9,20.1-22.2,20.7c-13.7,0.8-25.1-10.1-25.1-23.7c0-1.5,0.2-3.1,0.4-4.5c-2.8-0.1-5.6-0.3-8.4-0.6
					c-28.9-2.9-39.5-7.2-43.2-8.4l-15-5c-1.4-0.3-0.1,3.8,0.4,5.2c2.2,6.1,8.3,18,14.8,25.2c9,10,47,41,75,25s31-46.5,31-46.5
					S162.8,179.6,157.3,180.6z"/>
				<path style="fill:#336633;stroke:#000000;stroke-width:2;stroke-miterlimit:10;" d="M134.9,212.2c13.1,0,23.8-10.6,23.8-23.8
					c0-2.8-0.5-5.4-1.4-7.9c-3.3,0.6-7.5,1.2-12.2,1.8c1.1,1.8,1.7,3.9,1.7,6.1c0,6.6-5.3,11.9-11.9,11.9S123,195,123,188.5
					c0-1.6,0.3-3.1,0.9-4.5c-4,0.1-8.2,0.1-12.3,0c-0.3,1.5-0.4,3-0.4,4.5C111.2,201.6,121.8,212.2,134.9,212.2z"/>
				<path style="stroke:#000000;stroke-width:2;stroke-miterlimit:10;" d="M123,188.5c0,6.6,5.3,11.9,11.9,11.9s11.9-5.3,11.9-11.9
					c0-2.2-0.6-4.3-1.7-6.1c-6.3,0.8-13.6,1.4-21.2,1.6C123.3,185.4,123,186.9,123,188.5z"/>
			</g>
			<g>
				<path style="fill:#FFFFFF;stroke:#000000;stroke-width:2;stroke-miterlimit:10;" d="M319.7,169.1c-2,0.8-14.3,6-21.6,7.9
					c1.9,3.6,3,7.8,2.7,12.3c-0.6,12-10.3,21.8-22.3,22.6c-13.8,0.8-25.2-10.1-25.2-23.7c0-1.4,0.1-2.7,0.3-4
					c-27.7,1.3-55.4-5-55.4-5s2.3,30,32.7,40.8c28,10,58-3,74-18c8.6-8.1,14.9-25.7,14.9-29.5c0-2,0-2.8,0.1-3.2
					C319.9,169.1,319.8,169,319.7,169.1z"/>
				<path style="fill:#336633;stroke:#000000;stroke-width:2;stroke-miterlimit:10;" d="M277.1,211.9c13.1,0,23.8-10.6,23.8-23.8
					c0-4-1-7.8-2.8-11.1c-3.6,1-7.7,2-12.4,2.9c2,2.1,3.3,5,3.3,8.2c0,6.6-5.3,11.9-11.9,11.9s-11.9-5.3-11.9-11.9
					c0-1.8,0.4-3.5,1.1-5.1c-1.7,0.2-3.4,0.4-5.1,0.6c-2.5,0.3-5,0.4-7.6,0.5c-0.2,1.3-0.3,2.6-0.3,4
					C253.4,201.2,264,211.9,277.1,211.9z"/>
				<path style="stroke:#000000;stroke-width:2;stroke-miterlimit:10;" d="M265.2,188.1c0,6.6,5.3,11.9,11.9,11.9
					s11.9-5.3,11.9-11.9c0-3.2-1.3-6.1-3.3-8.2c-5.7,1.2-12.2,2.3-19.4,3.2C265.6,184.6,265.2,186.3,265.2,188.1z"/>
			</g>
			<path style="fill:none;stroke:#000000;stroke-width:2;stroke-miterlimit:10;" d="M28,167c7.2-1.3,22.2,5,32,8"/>
			<path style="fill:none;stroke:#000000;stroke-width:2;stroke-miterlimit:10;" d="M334,167c-2-1-3-2-7-1c-2.9,0.7-7,3-7.7,3.3"/>
		</g>
		<path d="M46.9,108.2c-6.2-43.7,21.8-86.4,25.8-86.4c4,0,50.1,5.6,64.1,48.4"/>
		<path style="fill:none;stroke:#000000;stroke-width:2;stroke-miterlimit:10;" d="M34.4,114.8C26.5,58.9,62.3,4.3,67.4,4.3
			c5.1,0,64.1,7.2,81.9,62"/>
		<path d="M316.6,103.1c2.9-44.1-28.1-84.6-32.1-84.3c-4,0.3-49.6,9.3-60.3,53"/>
		<path style="fill:none;stroke:#000000;stroke-width:2;stroke-miterlimit:10;" d="M329.6,108.8C333.3,52.4,293.6,0.6,288.5,1
			s-63.4,11.9-77.1,67.8"/>
		<path style="fill:none;stroke:#000000;stroke-width:2;stroke-miterlimit:10;" d="M34.4,114.8C26.5,58.9,62.3,4.3,67.4,4.3
			c5.1,0,64.1,7.2,81.9,62"/>
	</g>
</g>
</svg>
