{
	"asset":{
		"generator":"Khronos glTF Blender I/O v4.0.44",
		"version":"2.0"
	},
	"extensionsUsed":[
		"KHR_materials_transmission",
		"KHR_materials_specular"
	],
	"scene":0,
	"scenes":[
		{
			"name":"Scene",
			"nodes":[
				0
			]
		}
	],
	"nodes":[
		{
			"mesh":0,
			"name":"10604_slot_car_red_SG_v1_iterations-2",
			"rotation":[
				0.7071068286895752,
				0,
				0,
				0.7071068286895752
			]
		}
	],
	"materials":[
		{
			"doubleSided":true,
			"extensions":{
				"KHR_materials_transmission":{
					"transmissionFactor":1
				},
				"KHR_materials_specular":{
					"specularFactor":0
				}
			},
			"name":"slot_car",
			"pbrMetallicRoughness":{
				"baseColorTexture":{
					"index":0
				},
				"metallicFactor":0,
				"roughnessFactor":0.8999999761581421
			}
		},
		{
			"alphaMode":"BLEND",
			"doubleSided":true,
			"extensions":{
				"KHR_materials_transmission":{
					"transmissionFactor":0.5
				},
				"KHR_materials_specular":{
					"specularFactor":0
				}
			},
			"name":"slot_car_glass",
			"pbrMetallicRoughness":{
				"baseColorFactor":[
					0.5879999995231628,
					0.5879999995231628,
					0.5879999995231628,
					0.5
				],
				"metallicFactor":0,
				"roughnessFactor":0.8999999761581421
			}
		}
	],
	"meshes":[
		{
			"name":"10604_slot_car_red_SG_v1_iterations-2",
			"primitives":[
				{
					"attributes":{
						"POSITION":0,
						"NORMAL":1,
						"TEXCOORD_0":2
					},
					"indices":3,
					"material":0
				},
				{
					"attributes":{
						"POSITION":4,
						"NORMAL":5,
						"TEXCOORD_0":6
					},
					"indices":7,
					"material":1
				}
			]
		}
	],
	"textures":[
		{
			"sampler":0,
			"source":0
		}
	],
	"images":[
		{
			"mimeType":"image/jpeg",
			"name":"10604_slot_car_red_SG_v1_diffuse",
			"uri":"10604_slot_car_red_SG_v1_diffuse.jpg"
		}
	],
	"accessors":[
		{
			"bufferView":0,
			"componentType":5126,
			"count":16340,
			"max":[
				1.024899959564209,
				2.6775999069213867,
				1.4031000137329102
			],
			"min":[
				-1.024899959564209,
				-2.272900104522705,
				0.012299999594688416
			],
			"type":"VEC3"
		},
		{
			"bufferView":1,
			"componentType":5126,
			"count":16340,
			"type":"VEC3"
		},
		{
			"bufferView":2,
			"componentType":5126,
			"count":16340,
			"type":"VEC2"
		},
		{
			"bufferView":3,
			"componentType":5123,
			"count":81888,
			"type":"SCALAR"
		},
		{
			"bufferView":4,
			"componentType":5126,
			"count":1140,
			"max":[
				0.8482999801635742,
				1.1783000230789185,
				1.386199951171875
			],
			"min":[
				-0.8482999801635742,
				-0.24619999527931213,
				0.9660999774932861
			],
			"type":"VEC3"
		},
		{
			"bufferView":5,
			"componentType":5126,
			"count":1140,
			"type":"VEC3"
		},
		{
			"bufferView":6,
			"componentType":5126,
			"count":1140,
			"type":"VEC2"
		},
		{
			"bufferView":7,
			"componentType":5123,
			"count":5376,
			"type":"SCALAR"
		}
	],
	"bufferViews":[
		{
			"buffer":0,
			"byteLength":196080,
			"byteOffset":0,
			"target":34962
		},
		{
			"buffer":0,
			"byteLength":196080,
			"byteOffset":196080,
			"target":34962
		},
		{
			"buffer":0,
			"byteLength":130720,
			"byteOffset":392160,
			"target":34962
		},
		{
			"buffer":0,
			"byteLength":163776,
			"byteOffset":522880,
			"target":34963
		},
		{
			"buffer":0,
			"byteLength":13680,
			"byteOffset":686656,
			"target":34962
		},
		{
			"buffer":0,
			"byteLength":13680,
			"byteOffset":700336,
			"target":34962
		},
		{
			"buffer":0,
			"byteLength":9120,
			"byteOffset":714016,
			"target":34962
		},
		{
			"buffer":0,
			"byteLength":10752,
			"byteOffset":723136,
			"target":34963
		}
	],
	"samplers":[
		{
			"magFilter":9729,
			"minFilter":9987
		}
	],
	"buffers":[
		{
			"byteLength":733888,
			"uri":"car.bin"
		}
	]
}
